<?xml version="1.0" encoding="UTF-8" standalone="no"?>
<!DOCTYPE svg PUBLIC "-//W3C//DTD SVG 1.1//EN"
 "http://www.w3.org/Graphics/SVG/1.1/DTD/svg11.dtd">
<!-- Generated by graphviz version 2.40.1 (20161225.0304)
 -->
<!-- Title: %3 Pages: 1 -->
<svg width="1054pt" height="296pt"
 viewBox="0.00 0.00 1054.00 296.22" xmlns="http://www.w3.org/2000/svg" xmlns:xlink="http://www.w3.org/1999/xlink">
<g id="graph0" class="graph" transform="scale(1 1) rotate(0) translate(4 292.2203)">
<title>%3</title>
<polygon fill="#ffffff" stroke="transparent" points="-4,4 -4,-292.2203 1050,-292.2203 1050,4 -4,4"/>
<g id="clust1" class="cluster">
<title>cluster_1</title>
<polygon fill="none" stroke="#000000" points="8,-97.7401 8,-280.2203 78,-280.2203 78,-97.7401 8,-97.7401"/>
<text text-anchor="middle" x="43" y="-265.0203" font-family="Times,serif" font-size="14.00" fill="#000000">mine 1</text>
</g>
<g id="clust2" class="cluster">
<title>cluster_2</title>
<polygon fill="none" stroke="#000000" points="86,-8 86,-280.2203 228,-280.2203 228,-8 86,-8"/>
<text text-anchor="middle" x="157" y="-265.0203" font-family="Times,serif" font-size="14.00" fill="#000000">mine 2</text>
</g>
<g id="clust3" class="cluster">
<title>cluster_3</title>
<polygon fill="none" stroke="#000000" points="236,-97.7401 236,-280.2203 450,-280.2203 450,-97.7401 236,-97.7401"/>
<text text-anchor="middle" x="343" y="-265.0203" font-family="Times,serif" font-size="14.00" fill="#000000">mine 3</text>
</g>
<g id="clust4" class="cluster">
<title>cluster_4</title>
<polygon fill="none" stroke="#000000" points="458,-97.7401 458,-280.2203 744,-280.2203 744,-97.7401 458,-97.7401"/>
<text text-anchor="middle" x="601" y="-265.0203" font-family="Times,serif" font-size="14.00" fill="#000000">mine 4</text>
</g>
<g id="clust5" class="cluster">
<title>cluster_5</title>
<polygon fill="none" stroke="#000000" points="752,-8 752,-280.2203 1038,-280.2203 1038,-8 752,-8"/>
<text text-anchor="middle" x="895" y="-265.0203" font-family="Times,serif" font-size="14.00" fill="#000000">mine 5</text>
</g>
<!-- m1c1 -->
<g id="node1" class="node">
<title>m1c1</title>
<ellipse fill="none" stroke="#000000" cx="43" cy="-222.3503" rx="27" ry="26.7407"/>
<text text-anchor="middle" x="43" y="-226.1503" font-family="Times,serif" font-size="14.00" fill="#000000">1</text>
<text text-anchor="middle" x="43" y="-211.1503" font-family="Times,serif" font-size="14.00" fill="#000000">10</text>
</g>
<!-- m1c2 -->
<g id="node2" class="node">
<title>m1c2</title>
<ellipse fill="none" stroke="#000000" cx="43" cy="-132.6102" rx="27" ry="26.7407"/>
<text text-anchor="middle" x="43" y="-136.4102" font-family="Times,serif" font-size="14.00" fill="#000000">2</text>
<text text-anchor="middle" x="43" y="-121.4102" font-family="Times,serif" font-size="14.00" fill="#000000">20</text>
</g>
<!-- m1c1&#45;&#45;m1c2 -->
<g id="edge1" class="edge">
<title>m1c1&#45;&#45;m1c2</title>
<path fill="none" stroke="#000000" d="M43,-195.4253C43,-184.0671 43,-170.8723 43,-159.5162"/>
</g>
<!-- m2c1 -->
<g id="node3" class="node">
<title>m2c1</title>
<ellipse fill="none" stroke="#000000" cx="157" cy="-222.3503" rx="27" ry="26.7407"/>
<text text-anchor="middle" x="157" y="-226.1503" font-family="Times,serif" font-size="14.00" fill="#000000">1</text>
<text text-anchor="middle" x="157" y="-211.1503" font-family="Times,serif" font-size="14.00" fill="#000000">1</text>
</g>
<!-- m2c2 -->
<g id="node4" class="node">
<title>m2c2</title>
<ellipse fill="none" stroke="#000000" cx="121" cy="-132.6102" rx="27" ry="26.7407"/>
<text text-anchor="middle" x="121" y="-136.4102" font-family="Times,serif" font-size="14.00" fill="#000000">2</text>
<text text-anchor="middle" x="121" y="-121.4102" font-family="Times,serif" font-size="14.00" fill="#000000">1</text>
</g>
<!-- m2c1&#45;&#45;m2c2 -->
<g id="edge2" class="edge">
<title>m2c1&#45;&#45;m2c2</title>
<path fill="none" stroke="#000000" d="M146.972,-197.3527C142.0204,-185.0095 136.0602,-170.1521 131.0991,-157.785"/>
</g>
<!-- m2c3 -->
<g id="node5" class="node">
<title>m2c3</title>
<ellipse fill="none" stroke="#000000" cx="193" cy="-132.6102" rx="27" ry="26.7407"/>
<text text-anchor="middle" x="193" y="-136.4102" font-family="Times,serif" font-size="14.00" fill="#000000">3</text>
<text text-anchor="middle" x="193" y="-121.4102" font-family="Times,serif" font-size="14.00" fill="#000000">1</text>
</g>
<!-- m2c1&#45;&#45;m2c3 -->
<g id="edge3" class="edge">
<title>m2c1&#45;&#45;m2c3</title>
<path fill="none" stroke="#000000" d="M167.028,-197.3527C171.9796,-185.0095 177.9398,-170.1521 182.9009,-157.785"/>
</g>
<!-- m2c4 -->
<g id="node6" class="node">
<title>m2c4</title>
<ellipse fill="none" stroke="#000000" cx="121" cy="-42.8701" rx="27" ry="26.7407"/>
<text text-anchor="middle" x="121" y="-46.6701" font-family="Times,serif" font-size="14.00" fill="#000000">4</text>
<text text-anchor="middle" x="121" y="-31.6701" font-family="Times,serif" font-size="14.00" fill="#000000">1</text>
</g>
<!-- m2c2&#45;&#45;m2c4 -->
<g id="edge4" class="edge">
<title>m2c2&#45;&#45;m2c4</title>
<path fill="none" stroke="#000000" d="M121,-105.6852C121,-94.327 121,-81.1321 121,-69.776"/>
</g>
<!-- m3c1 -->
<g id="node7" class="node">
<title>m3c1</title>
<ellipse fill="none" stroke="#000000" cx="343" cy="-222.3503" rx="27" ry="26.7407"/>
<text text-anchor="middle" x="343" y="-226.1503" font-family="Times,serif" font-size="14.00" fill="#000000">1</text>
<text text-anchor="middle" x="343" y="-211.1503" font-family="Times,serif" font-size="14.00" fill="#000000">1</text>
</g>
<!-- m3c2 -->
<g id="node8" class="node">
<title>m3c2</title>
<ellipse fill="none" stroke="#000000" cx="271" cy="-132.6102" rx="27" ry="26.7407"/>
<text text-anchor="middle" x="271" y="-136.4102" font-family="Times,serif" font-size="14.00" fill="#000000">2</text>
<text text-anchor="middle" x="271" y="-121.4102" font-family="Times,serif" font-size="14.00" fill="#000000">1</text>
</g>
<!-- m3c1&#45;&#45;m3c2 -->
<g id="edge5" class="edge">
<title>m3c1&#45;&#45;m3c2</title>
<path fill="none" stroke="#000000" d="M325.937,-201.0831C314.4596,-186.7778 299.3922,-167.998 287.9405,-153.7247"/>
</g>
<!-- m3c3 -->
<g id="node9" class="node">
<title>m3c3</title>
<ellipse fill="none" stroke="#000000" cx="343" cy="-132.6102" rx="27" ry="26.7407"/>
<text text-anchor="middle" x="343" y="-136.4102" font-family="Times,serif" font-size="14.00" fill="#000000">3</text>
<text text-anchor="middle" x="343" y="-121.4102" font-family="Times,serif" font-size="14.00" fill="#000000">1</text>
</g>
<!-- m3c1&#45;&#45;m3c3 -->
<g id="edge6" class="edge">
<title>m3c1&#45;&#45;m3c3</title>
<path fill="none" stroke="#000000" d="M343,-195.4253C343,-184.0671 343,-170.8723 343,-159.5162"/>
</g>
<!-- m3c4 -->
<g id="node10" class="node">
<title>m3c4</title>
<ellipse fill="none" stroke="#000000" cx="415" cy="-132.6102" rx="27" ry="26.7407"/>
<text text-anchor="middle" x="415" y="-136.4102" font-family="Times,serif" font-size="14.00" fill="#000000">4</text>
<text text-anchor="middle" x="415" y="-121.4102" font-family="Times,serif" font-size="14.00" fill="#000000">1</text>
</g>
<!-- m3c1&#45;&#45;m3c4 -->
<g id="edge7" class="edge">
<title>m3c1&#45;&#45;m3c4</title>
<path fill="none" stroke="#000000" d="M360.063,-201.0831C371.5404,-186.7778 386.6078,-167.998 398.0595,-153.7247"/>
</g>
<!-- m4c1 -->
<g id="node11" class="node">
<title>m4c1</title>
<ellipse fill="none" stroke="#000000" cx="709" cy="-222.3503" rx="27" ry="26.7407"/>
<text text-anchor="middle" x="709" y="-226.1503" font-family="Times,serif" font-size="14.00" fill="#000000">1</text>
<text text-anchor="middle" x="709" y="-211.1503" font-family="Times,serif" font-size="14.00" fill="#000000">5</text>
</g>
<!-- m4c5 -->
<g id="node15" class="node">
<title>m4c5</title>
<ellipse fill="none" stroke="#000000" cx="601" cy="-132.6102" rx="27" ry="26.7407"/>
<text text-anchor="middle" x="601" y="-136.4102" font-family="Times,serif" font-size="14.00" fill="#000000">5</text>
<text text-anchor="middle" x="601" y="-121.4102" font-family="Times,serif" font-size="14.00" fill="#000000">2</text>
</g>
<!-- m4c1&#45;&#45;m4c5 -->
<g id="edge8" class="edge">
<title>m4c1&#45;&#45;m4c5</title>
<path fill="none" stroke="#000000" d="M688.1765,-205.0475C669.0522,-189.1566 640.8637,-165.734 621.7596,-149.8599"/>
</g>
<!-- m4c2 -->
<g id="node12" class="node">
<title>m4c2</title>
<ellipse fill="none" stroke="#000000" cx="637" cy="-222.3503" rx="27" ry="26.7407"/>
<text text-anchor="middle" x="637" y="-226.1503" font-family="Times,serif" font-size="14.00" fill="#000000">2</text>
<text text-anchor="middle" x="637" y="-211.1503" font-family="Times,serif" font-size="14.00" fill="#000000">4</text>
</g>
<!-- m4c2&#45;&#45;m4c5 -->
<g id="edge9" class="edge">
<title>m4c2&#45;&#45;m4c5</title>
<path fill="none" stroke="#000000" d="M626.972,-197.3527C622.0204,-185.0095 616.0602,-170.1521 611.0991,-157.785"/>
</g>
<!-- m4c3 -->
<g id="node13" class="node">
<title>m4c3</title>
<ellipse fill="none" stroke="#000000" cx="493" cy="-222.3503" rx="27" ry="26.7407"/>
<text text-anchor="middle" x="493" y="-226.1503" font-family="Times,serif" font-size="14.00" fill="#000000">3</text>
<text text-anchor="middle" x="493" y="-211.1503" font-family="Times,serif" font-size="14.00" fill="#000000">1</text>
</g>
<!-- m4c3&#45;&#45;m4c5 -->
<g id="edge10" class="edge">
<title>m4c3&#45;&#45;m4c5</title>
<path fill="none" stroke="#000000" d="M513.8235,-205.0475C532.9478,-189.1566 561.1363,-165.734 580.2404,-149.8599"/>
</g>
<!-- m4c6 -->
<g id="node16" class="node">
<title>m4c6</title>
<ellipse fill="none" stroke="#000000" cx="493" cy="-132.6102" rx="27" ry="26.7407"/>
<text text-anchor="middle" x="493" y="-136.4102" font-family="Times,serif" font-size="14.00" fill="#000000">6</text>
<text text-anchor="middle" x="493" y="-121.4102" font-family="Times,serif" font-size="14.00" fill="#000000">4</text>
</g>
<!-- m4c3&#45;&#45;m4c6 -->
<g id="edge11" class="edge">
<title>m4c3&#45;&#45;m4c6</title>
<path fill="none" stroke="#000000" d="M493,-195.4253C493,-184.0671 493,-170.8723 493,-159.5162"/>
</g>
<!-- m4c4 -->
<g id="node14" class="node">
<title>m4c4</title>
<ellipse fill="none" stroke="#000000" cx="565" cy="-222.3503" rx="27" ry="26.7407"/>
<text text-anchor="middle" x="565" y="-226.1503" font-family="Times,serif" font-size="14.00" fill="#000000">4</text>
<text text-anchor="middle" x="565" y="-211.1503" font-family="Times,serif" font-size="14.00" fill="#000000">3</text>
</g>
<!-- m4c4&#45;&#45;m4c5 -->
<g id="edge12" class="edge">
<title>m4c4&#45;&#45;m4c5</title>
<path fill="none" stroke="#000000" d="M575.028,-197.3527C579.9796,-185.0095 585.9398,-170.1521 590.9009,-157.785"/>
</g>
<!-- m5c1 -->
<g id="node17" class="node">
<title>m5c1</title>
<ellipse fill="none" stroke="#000000" cx="931" cy="-222.3503" rx="27" ry="26.7407"/>
<text text-anchor="middle" x="931" y="-226.1503" font-family="Times,serif" font-size="14.00" fill="#000000">1</text>
<text text-anchor="middle" x="931" y="-211.1503" font-family="Times,serif" font-size="14.00" fill="#000000">2</text>
</g>
<!-- m5c3 -->
<g id="node19" class="node">
<title>m5c3</title>
<ellipse fill="none" stroke="#000000" cx="931" cy="-132.6102" rx="27" ry="26.7407"/>
<text text-anchor="middle" x="931" y="-136.4102" font-family="Times,serif" font-size="14.00" fill="#000000">3</text>
<text text-anchor="middle" x="931" y="-121.4102" font-family="Times,serif" font-size="14.00" fill="#000000">7</text>
</g>
<!-- m5c1&#45;&#45;m5c3 -->
<g id="edge13" class="edge">
<title>m5c1&#45;&#45;m5c3</title>
<path fill="none" stroke="#000000" d="M931,-195.4253C931,-184.0671 931,-170.8723 931,-159.5162"/>
</g>
<!-- m5c4 -->
<g id="node20" class="node">
<title>m5c4</title>
<ellipse fill="none" stroke="#000000" cx="1003" cy="-132.6102" rx="27" ry="26.7407"/>
<text text-anchor="middle" x="1003" y="-136.4102" font-family="Times,serif" font-size="14.00" fill="#000000">4</text>
<text text-anchor="middle" x="1003" y="-121.4102" font-family="Times,serif" font-size="14.00" fill="#000000">6</text>
</g>
<!-- m5c1&#45;&#45;m5c4 -->
<g id="edge14" class="edge">
<title>m5c1&#45;&#45;m5c4</title>
<path fill="none" stroke="#000000" d="M948.063,-201.0831C959.5404,-186.7778 974.6078,-167.998 986.0595,-153.7247"/>
</g>
<!-- m5c8 -->
<g id="node24" class="node">
<title>m5c8</title>
<ellipse fill="none" stroke="#000000" cx="859" cy="-132.6102" rx="27" ry="26.7407"/>
<text text-anchor="middle" x="859" y="-136.4102" font-family="Times,serif" font-size="14.00" fill="#000000">8</text>
<text text-anchor="middle" x="859" y="-121.4102" font-family="Times,serif" font-size="14.00" fill="#000000">1</text>
</g>
<!-- m5c1&#45;&#45;m5c8 -->
<g id="edge15" class="edge">
<title>m5c1&#45;&#45;m5c8</title>
<path fill="none" stroke="#000000" d="M913.937,-201.0831C902.4596,-186.7778 887.3922,-167.998 875.9405,-153.7247"/>
</g>
<!-- m5c2 -->
<g id="node18" class="node">
<title>m5c2</title>
<ellipse fill="none" stroke="#000000" cx="1003" cy="-222.3503" rx="27" ry="26.7407"/>
<text text-anchor="middle" x="1003" y="-226.1503" font-family="Times,serif" font-size="14.00" fill="#000000">2</text>
<text text-anchor="middle" x="1003" y="-211.1503" font-family="Times,serif" font-size="14.00" fill="#000000">14</text>
</g>
<!-- m5c2&#45;&#45;m5c4 -->
<g id="edge16" class="edge">
<title>m5c2&#45;&#45;m5c4</title>
<path fill="none" stroke="#000000" d="M1003,-195.4253C1003,-184.0671 1003,-170.8723 1003,-159.5162"/>
</g>
<!-- m5c5 -->
<g id="node21" class="node">
<title>m5c5</title>
<ellipse fill="none" stroke="#000000" cx="1003" cy="-42.8701" rx="27" ry="26.7407"/>
<text text-anchor="middle" x="1003" y="-46.6701" font-family="Times,serif" font-size="14.00" fill="#000000">5</text>
<text text-anchor="middle" x="1003" y="-31.6701" font-family="Times,serif" font-size="14.00" fill="#000000">11</text>
</g>
<!-- m5c4&#45;&#45;m5c5 -->
<g id="edge17" class="edge">
<title>m5c4&#45;&#45;m5c5</title>
<path fill="none" stroke="#000000" d="M1003,-105.6852C1003,-94.327 1003,-81.1321 1003,-69.776"/>
</g>
<!-- m5c6 -->
<g id="node22" class="node">
<title>m5c6</title>
<ellipse fill="none" stroke="#000000" cx="823" cy="-222.3503" rx="27" ry="26.7407"/>
<text text-anchor="middle" x="823" y="-226.1503" font-family="Times,serif" font-size="14.00" fill="#000000">6</text>
<text text-anchor="middle" x="823" y="-211.1503" font-family="Times,serif" font-size="14.00" fill="#000000">3</text>
</g>
<!-- m5c7 -->
<g id="node23" class="node">
<title>m5c7</title>
<ellipse fill="none" stroke="#000000" cx="787" cy="-132.6102" rx="27" ry="26.7407"/>
<text text-anchor="middle" x="787" y="-136.4102" font-family="Times,serif" font-size="14.00" fill="#000000">7</text>
<text text-anchor="middle" x="787" y="-121.4102" font-family="Times,serif" font-size="14.00" fill="#000000">6</text>
</g>
<!-- m5c6&#45;&#45;m5c7 -->
<g id="edge18" class="edge">
<title>m5c6&#45;&#45;m5c7</title>
<path fill="none" stroke="#000000" d="M812.972,-197.3527C808.0204,-185.0095 802.0602,-170.1521 797.0991,-157.785"/>
</g>
<!-- m5c6&#45;&#45;m5c8 -->
<g id="edge19" class="edge">
<title>m5c6&#45;&#45;m5c8</title>
<path fill="none" stroke="#000000" d="M833.028,-197.3527C837.9796,-185.0095 843.9398,-170.1521 848.9009,-157.785"/>
</g>
<!-- m5c9 -->
<g id="node25" class="node">
<title>m5c9</title>
<ellipse fill="none" stroke="#000000" cx="859" cy="-42.8701" rx="27" ry="26.7407"/>
<text text-anchor="middle" x="859" y="-46.6701" font-family="Times,serif" font-size="14.00" fill="#000000">9</text>
<text text-anchor="middle" x="859" y="-31.6701" font-family="Times,serif" font-size="14.00" fill="#000000">8</text>
</g>
<!-- m5c8&#45;&#45;m5c9 -->
<g id="edge20" class="edge">
<title>m5c8&#45;&#45;m5c9</title>
<path fill="none" stroke="#000000" d="M859,-105.6852C859,-94.327 859,-81.1321 859,-69.776"/>
</g>
</g>
</svg>
