<?xml version="1.0" encoding="UTF-8" standalone="no"?>
<!DOCTYPE svg PUBLIC "-//W3C//DTD SVG 1.1//EN"
 "http://www.w3.org/Graphics/SVG/1.1/DTD/svg11.dtd">
<!-- Generated by graphviz version 2.40.1 (20161225.0304)
 -->
<!-- Title: %3 Pages: 1 -->
<svg width="1498pt" height="311pt"
 viewBox="0.00 0.00 1498.00 311.22" xmlns="http://www.w3.org/2000/svg" xmlns:xlink="http://www.w3.org/1999/xlink">
<g id="graph0" class="graph" transform="scale(1 1) rotate(0) translate(4 307.2203)">
<title>%3</title>
<polygon fill="#ffffff" stroke="transparent" points="-4,4 -4,-307.2203 1494,-307.2203 1494,4 -4,4"/>
<g id="clust1" class="cluster">
<title>cluster_1</title>
<polygon fill="none" stroke="#000000" points="8,-97.7401 8,-295.2203 78,-295.2203 78,-97.7401 8,-97.7401"/>
<text text-anchor="middle" x="43" y="-280.0203" font-family="Times,serif" font-size="14.00" fill="#000000">mine 1</text>
<text text-anchor="middle" x="43" y="-265.0203" font-family="Times,serif" font-size="14.00" fill="#000000">K = 1</text>
</g>
<g id="clust2" class="cluster">
<title>cluster_2</title>
<polygon fill="none" stroke="#000000" points="86,-97.7401 86,-295.2203 156,-295.2203 156,-97.7401 86,-97.7401"/>
<text text-anchor="middle" x="121" y="-280.0203" font-family="Times,serif" font-size="14.00" fill="#000000">mine 2</text>
<text text-anchor="middle" x="121" y="-265.0203" font-family="Times,serif" font-size="14.00" fill="#000000">K = 0</text>
</g>
<g id="clust3" class="cluster">
<title>cluster_3</title>
<polygon fill="none" stroke="#000000" points="164,-97.7401 164,-295.2203 378,-295.2203 378,-97.7401 164,-97.7401"/>
<text text-anchor="middle" x="271" y="-280.0203" font-family="Times,serif" font-size="14.00" fill="#000000">mine 3</text>
<text text-anchor="middle" x="271" y="-265.0203" font-family="Times,serif" font-size="14.00" fill="#000000">K = 1</text>
</g>
<g id="clust4" class="cluster">
<title>cluster_4</title>
<polygon fill="none" stroke="#000000" points="386,-97.7401 386,-295.2203 600,-295.2203 600,-97.7401 386,-97.7401"/>
<text text-anchor="middle" x="493" y="-280.0203" font-family="Times,serif" font-size="14.00" fill="#000000">mine 4</text>
<text text-anchor="middle" x="493" y="-265.0203" font-family="Times,serif" font-size="14.00" fill="#000000">K = 2</text>
</g>
<g id="clust5" class="cluster">
<title>cluster_5</title>
<polygon fill="none" stroke="#000000" points="608,-97.7401 608,-295.2203 894,-295.2203 894,-97.7401 608,-97.7401"/>
<text text-anchor="middle" x="751" y="-280.0203" font-family="Times,serif" font-size="14.00" fill="#000000">mine 5</text>
<text text-anchor="middle" x="751" y="-265.0203" font-family="Times,serif" font-size="14.00" fill="#000000">K = 2</text>
</g>
<g id="clust6" class="cluster">
<title>cluster_6</title>
<polygon fill="none" stroke="#000000" points="902,-8 902,-295.2203 1188,-295.2203 1188,-8 902,-8"/>
<text text-anchor="middle" x="1045" y="-280.0203" font-family="Times,serif" font-size="14.00" fill="#000000">mine 6</text>
<text text-anchor="middle" x="1045" y="-265.0203" font-family="Times,serif" font-size="14.00" fill="#000000">K = 2</text>
</g>
<g id="clust7" class="cluster">
<title>cluster_7</title>
<polygon fill="none" stroke="#000000" points="1196,-8 1196,-295.2203 1482,-295.2203 1482,-8 1196,-8"/>
<text text-anchor="middle" x="1339" y="-280.0203" font-family="Times,serif" font-size="14.00" fill="#000000">mine 7</text>
<text text-anchor="middle" x="1339" y="-265.0203" font-family="Times,serif" font-size="14.00" fill="#000000">K = 50</text>
</g>
<!-- m1c1 -->
<g id="node1" class="node">
<title>m1c1</title>
<ellipse fill="none" stroke="#000000" cx="43" cy="-222.3503" rx="27" ry="26.7407"/>
<text text-anchor="middle" x="43" y="-226.1503" font-family="Times,serif" font-size="14.00" fill="#000000">1</text>
<text text-anchor="middle" x="43" y="-211.1503" font-family="Times,serif" font-size="14.00" fill="#000000">10</text>
</g>
<!-- m1c2 -->
<g id="node2" class="node">
<title>m1c2</title>
<ellipse fill="none" stroke="#000000" cx="43" cy="-132.6102" rx="27" ry="26.7407"/>
<text text-anchor="middle" x="43" y="-136.4102" font-family="Times,serif" font-size="14.00" fill="#000000">2</text>
<text text-anchor="middle" x="43" y="-121.4102" font-family="Times,serif" font-size="14.00" fill="#000000">20</text>
</g>
<!-- m1c1&#45;&#45;m1c2 -->
<g id="edge1" class="edge">
<title>m1c1&#45;&#45;m1c2</title>
<path fill="none" stroke="#000000" d="M43,-195.4253C43,-184.0671 43,-170.8723 43,-159.5162"/>
</g>
<!-- m2c1 -->
<g id="node3" class="node">
<title>m2c1</title>
<ellipse fill="none" stroke="#000000" cx="121" cy="-222.3503" rx="27" ry="26.7407"/>
<text text-anchor="middle" x="121" y="-226.1503" font-family="Times,serif" font-size="14.00" fill="#000000">1</text>
<text text-anchor="middle" x="121" y="-211.1503" font-family="Times,serif" font-size="14.00" fill="#000000">10</text>
</g>
<!-- m2c2 -->
<g id="node4" class="node">
<title>m2c2</title>
<ellipse fill="none" stroke="#000000" cx="121" cy="-132.6102" rx="27" ry="26.7407"/>
<text text-anchor="middle" x="121" y="-136.4102" font-family="Times,serif" font-size="14.00" fill="#000000">2</text>
<text text-anchor="middle" x="121" y="-121.4102" font-family="Times,serif" font-size="14.00" fill="#000000">20</text>
</g>
<!-- m2c1&#45;&#45;m2c2 -->
<g id="edge2" class="edge">
<title>m2c1&#45;&#45;m2c2</title>
<path fill="none" stroke="#000000" d="M121,-195.4253C121,-184.0671 121,-170.8723 121,-159.5162"/>
</g>
<!-- m3c1 -->
<g id="node5" class="node">
<title>m3c1</title>
<ellipse fill="none" stroke="#000000" cx="271" cy="-222.3503" rx="27" ry="26.7407"/>
<text text-anchor="middle" x="271" y="-226.1503" font-family="Times,serif" font-size="14.00" fill="#000000">1</text>
<text text-anchor="middle" x="271" y="-211.1503" font-family="Times,serif" font-size="14.00" fill="#000000">1</text>
</g>
<!-- m3c2 -->
<g id="node6" class="node">
<title>m3c2</title>
<ellipse fill="none" stroke="#000000" cx="199" cy="-132.6102" rx="27" ry="26.7407"/>
<text text-anchor="middle" x="199" y="-136.4102" font-family="Times,serif" font-size="14.00" fill="#000000">2</text>
<text text-anchor="middle" x="199" y="-121.4102" font-family="Times,serif" font-size="14.00" fill="#000000">1</text>
</g>
<!-- m3c1&#45;&#45;m3c2 -->
<g id="edge3" class="edge">
<title>m3c1&#45;&#45;m3c2</title>
<path fill="none" stroke="#000000" d="M253.937,-201.0831C242.4596,-186.7778 227.3922,-167.998 215.9405,-153.7247"/>
</g>
<!-- m3c3 -->
<g id="node7" class="node">
<title>m3c3</title>
<ellipse fill="none" stroke="#000000" cx="271" cy="-132.6102" rx="27" ry="26.7407"/>
<text text-anchor="middle" x="271" y="-136.4102" font-family="Times,serif" font-size="14.00" fill="#000000">3</text>
<text text-anchor="middle" x="271" y="-121.4102" font-family="Times,serif" font-size="14.00" fill="#000000">1</text>
</g>
<!-- m3c1&#45;&#45;m3c3 -->
<g id="edge4" class="edge">
<title>m3c1&#45;&#45;m3c3</title>
<path fill="none" stroke="#000000" d="M271,-195.4253C271,-184.0671 271,-170.8723 271,-159.5162"/>
</g>
<!-- m3c4 -->
<g id="node8" class="node">
<title>m3c4</title>
<ellipse fill="none" stroke="#000000" cx="343" cy="-132.6102" rx="27" ry="26.7407"/>
<text text-anchor="middle" x="343" y="-136.4102" font-family="Times,serif" font-size="14.00" fill="#000000">4</text>
<text text-anchor="middle" x="343" y="-121.4102" font-family="Times,serif" font-size="14.00" fill="#000000">1</text>
</g>
<!-- m3c1&#45;&#45;m3c4 -->
<g id="edge5" class="edge">
<title>m3c1&#45;&#45;m3c4</title>
<path fill="none" stroke="#000000" d="M288.063,-201.0831C299.5404,-186.7778 314.6078,-167.998 326.0595,-153.7247"/>
</g>
<!-- m4c1 -->
<g id="node9" class="node">
<title>m4c1</title>
<ellipse fill="none" stroke="#000000" cx="493" cy="-222.3503" rx="27" ry="26.7407"/>
<text text-anchor="middle" x="493" y="-226.1503" font-family="Times,serif" font-size="14.00" fill="#000000">1</text>
<text text-anchor="middle" x="493" y="-211.1503" font-family="Times,serif" font-size="14.00" fill="#000000">1</text>
</g>
<!-- m4c2 -->
<g id="node10" class="node">
<title>m4c2</title>
<ellipse fill="none" stroke="#000000" cx="421" cy="-132.6102" rx="27" ry="26.7407"/>
<text text-anchor="middle" x="421" y="-136.4102" font-family="Times,serif" font-size="14.00" fill="#000000">2</text>
<text text-anchor="middle" x="421" y="-121.4102" font-family="Times,serif" font-size="14.00" fill="#000000">1</text>
</g>
<!-- m4c1&#45;&#45;m4c2 -->
<g id="edge6" class="edge">
<title>m4c1&#45;&#45;m4c2</title>
<path fill="none" stroke="#000000" d="M475.937,-201.0831C464.4596,-186.7778 449.3922,-167.998 437.9405,-153.7247"/>
</g>
<!-- m4c3 -->
<g id="node11" class="node">
<title>m4c3</title>
<ellipse fill="none" stroke="#000000" cx="493" cy="-132.6102" rx="27" ry="26.7407"/>
<text text-anchor="middle" x="493" y="-136.4102" font-family="Times,serif" font-size="14.00" fill="#000000">3</text>
<text text-anchor="middle" x="493" y="-121.4102" font-family="Times,serif" font-size="14.00" fill="#000000">1</text>
</g>
<!-- m4c1&#45;&#45;m4c3 -->
<g id="edge7" class="edge">
<title>m4c1&#45;&#45;m4c3</title>
<path fill="none" stroke="#000000" d="M493,-195.4253C493,-184.0671 493,-170.8723 493,-159.5162"/>
</g>
<!-- m4c4 -->
<g id="node12" class="node">
<title>m4c4</title>
<ellipse fill="none" stroke="#000000" cx="565" cy="-132.6102" rx="27" ry="26.7407"/>
<text text-anchor="middle" x="565" y="-136.4102" font-family="Times,serif" font-size="14.00" fill="#000000">4</text>
<text text-anchor="middle" x="565" y="-121.4102" font-family="Times,serif" font-size="14.00" fill="#000000">1</text>
</g>
<!-- m4c1&#45;&#45;m4c4 -->
<g id="edge8" class="edge">
<title>m4c1&#45;&#45;m4c4</title>
<path fill="none" stroke="#000000" d="M510.063,-201.0831C521.5404,-186.7778 536.6078,-167.998 548.0595,-153.7247"/>
</g>
<!-- m5c1 -->
<g id="node13" class="node">
<title>m5c1</title>
<ellipse fill="none" stroke="#000000" cx="859" cy="-222.3503" rx="27" ry="26.7407"/>
<text text-anchor="middle" x="859" y="-226.1503" font-family="Times,serif" font-size="14.00" fill="#000000">1</text>
<text text-anchor="middle" x="859" y="-211.1503" font-family="Times,serif" font-size="14.00" fill="#000000">5</text>
</g>
<!-- m5c5 -->
<g id="node17" class="node">
<title>m5c5</title>
<ellipse fill="none" stroke="#000000" cx="751" cy="-132.6102" rx="27" ry="26.7407"/>
<text text-anchor="middle" x="751" y="-136.4102" font-family="Times,serif" font-size="14.00" fill="#000000">5</text>
<text text-anchor="middle" x="751" y="-121.4102" font-family="Times,serif" font-size="14.00" fill="#000000">2</text>
</g>
<!-- m5c1&#45;&#45;m5c5 -->
<g id="edge9" class="edge">
<title>m5c1&#45;&#45;m5c5</title>
<path fill="none" stroke="#000000" d="M838.1765,-205.0475C819.0522,-189.1566 790.8637,-165.734 771.7596,-149.8599"/>
</g>
<!-- m5c2 -->
<g id="node14" class="node">
<title>m5c2</title>
<ellipse fill="none" stroke="#000000" cx="787" cy="-222.3503" rx="27" ry="26.7407"/>
<text text-anchor="middle" x="787" y="-226.1503" font-family="Times,serif" font-size="14.00" fill="#000000">2</text>
<text text-anchor="middle" x="787" y="-211.1503" font-family="Times,serif" font-size="14.00" fill="#000000">4</text>
</g>
<!-- m5c2&#45;&#45;m5c5 -->
<g id="edge10" class="edge">
<title>m5c2&#45;&#45;m5c5</title>
<path fill="none" stroke="#000000" d="M776.972,-197.3527C772.0204,-185.0095 766.0602,-170.1521 761.0991,-157.785"/>
</g>
<!-- m5c3 -->
<g id="node15" class="node">
<title>m5c3</title>
<ellipse fill="none" stroke="#000000" cx="643" cy="-222.3503" rx="27" ry="26.7407"/>
<text text-anchor="middle" x="643" y="-226.1503" font-family="Times,serif" font-size="14.00" fill="#000000">3</text>
<text text-anchor="middle" x="643" y="-211.1503" font-family="Times,serif" font-size="14.00" fill="#000000">1</text>
</g>
<!-- m5c3&#45;&#45;m5c5 -->
<g id="edge11" class="edge">
<title>m5c3&#45;&#45;m5c5</title>
<path fill="none" stroke="#000000" d="M663.8235,-205.0475C682.9478,-189.1566 711.1363,-165.734 730.2404,-149.8599"/>
</g>
<!-- m5c6 -->
<g id="node18" class="node">
<title>m5c6</title>
<ellipse fill="none" stroke="#000000" cx="643" cy="-132.6102" rx="27" ry="26.7407"/>
<text text-anchor="middle" x="643" y="-136.4102" font-family="Times,serif" font-size="14.00" fill="#000000">6</text>
<text text-anchor="middle" x="643" y="-121.4102" font-family="Times,serif" font-size="14.00" fill="#000000">4</text>
</g>
<!-- m5c3&#45;&#45;m5c6 -->
<g id="edge12" class="edge">
<title>m5c3&#45;&#45;m5c6</title>
<path fill="none" stroke="#000000" d="M643,-195.4253C643,-184.0671 643,-170.8723 643,-159.5162"/>
</g>
<!-- m5c4 -->
<g id="node16" class="node">
<title>m5c4</title>
<ellipse fill="none" stroke="#000000" cx="715" cy="-222.3503" rx="27" ry="26.7407"/>
<text text-anchor="middle" x="715" y="-226.1503" font-family="Times,serif" font-size="14.00" fill="#000000">4</text>
<text text-anchor="middle" x="715" y="-211.1503" font-family="Times,serif" font-size="14.00" fill="#000000">3</text>
</g>
<!-- m5c4&#45;&#45;m5c5 -->
<g id="edge13" class="edge">
<title>m5c4&#45;&#45;m5c5</title>
<path fill="none" stroke="#000000" d="M725.028,-197.3527C729.9796,-185.0095 735.9398,-170.1521 740.9009,-157.785"/>
</g>
<!-- m6c1 -->
<g id="node19" class="node">
<title>m6c1</title>
<ellipse fill="none" stroke="#000000" cx="1081" cy="-222.3503" rx="27" ry="26.7407"/>
<text text-anchor="middle" x="1081" y="-226.1503" font-family="Times,serif" font-size="14.00" fill="#000000">1</text>
<text text-anchor="middle" x="1081" y="-211.1503" font-family="Times,serif" font-size="14.00" fill="#000000">2</text>
</g>
<!-- m6c3 -->
<g id="node21" class="node">
<title>m6c3</title>
<ellipse fill="none" stroke="#000000" cx="1081" cy="-132.6102" rx="27" ry="26.7407"/>
<text text-anchor="middle" x="1081" y="-136.4102" font-family="Times,serif" font-size="14.00" fill="#000000">3</text>
<text text-anchor="middle" x="1081" y="-121.4102" font-family="Times,serif" font-size="14.00" fill="#000000">7</text>
</g>
<!-- m6c1&#45;&#45;m6c3 -->
<g id="edge14" class="edge">
<title>m6c1&#45;&#45;m6c3</title>
<path fill="none" stroke="#000000" d="M1081,-195.4253C1081,-184.0671 1081,-170.8723 1081,-159.5162"/>
</g>
<!-- m6c4 -->
<g id="node22" class="node">
<title>m6c4</title>
<ellipse fill="none" stroke="#000000" cx="1153" cy="-132.6102" rx="27" ry="26.7407"/>
<text text-anchor="middle" x="1153" y="-136.4102" font-family="Times,serif" font-size="14.00" fill="#000000">4</text>
<text text-anchor="middle" x="1153" y="-121.4102" font-family="Times,serif" font-size="14.00" fill="#000000">6</text>
</g>
<!-- m6c1&#45;&#45;m6c4 -->
<g id="edge15" class="edge">
<title>m6c1&#45;&#45;m6c4</title>
<path fill="none" stroke="#000000" d="M1098.063,-201.0831C1109.5404,-186.7778 1124.6078,-167.998 1136.0595,-153.7247"/>
</g>
<!-- m6c8 -->
<g id="node26" class="node">
<title>m6c8</title>
<ellipse fill="none" stroke="#000000" cx="1009" cy="-132.6102" rx="27" ry="26.7407"/>
<text text-anchor="middle" x="1009" y="-136.4102" font-family="Times,serif" font-size="14.00" fill="#000000">8</text>
<text text-anchor="middle" x="1009" y="-121.4102" font-family="Times,serif" font-size="14.00" fill="#000000">1</text>
</g>
<!-- m6c1&#45;&#45;m6c8 -->
<g id="edge16" class="edge">
<title>m6c1&#45;&#45;m6c8</title>
<path fill="none" stroke="#000000" d="M1063.937,-201.0831C1052.4596,-186.7778 1037.3922,-167.998 1025.9405,-153.7247"/>
</g>
<!-- m6c2 -->
<g id="node20" class="node">
<title>m6c2</title>
<ellipse fill="none" stroke="#000000" cx="1153" cy="-222.3503" rx="27" ry="26.7407"/>
<text text-anchor="middle" x="1153" y="-226.1503" font-family="Times,serif" font-size="14.00" fill="#000000">2</text>
<text text-anchor="middle" x="1153" y="-211.1503" font-family="Times,serif" font-size="14.00" fill="#000000">14</text>
</g>
<!-- m6c2&#45;&#45;m6c4 -->
<g id="edge17" class="edge">
<title>m6c2&#45;&#45;m6c4</title>
<path fill="none" stroke="#000000" d="M1153,-195.4253C1153,-184.0671 1153,-170.8723 1153,-159.5162"/>
</g>
<!-- m6c5 -->
<g id="node23" class="node">
<title>m6c5</title>
<ellipse fill="none" stroke="#000000" cx="1153" cy="-42.8701" rx="27" ry="26.7407"/>
<text text-anchor="middle" x="1153" y="-46.6701" font-family="Times,serif" font-size="14.00" fill="#000000">5</text>
<text text-anchor="middle" x="1153" y="-31.6701" font-family="Times,serif" font-size="14.00" fill="#000000">11</text>
</g>
<!-- m6c4&#45;&#45;m6c5 -->
<g id="edge18" class="edge">
<title>m6c4&#45;&#45;m6c5</title>
<path fill="none" stroke="#000000" d="M1153,-105.6852C1153,-94.327 1153,-81.1321 1153,-69.776"/>
</g>
<!-- m6c6 -->
<g id="node24" class="node">
<title>m6c6</title>
<ellipse fill="none" stroke="#000000" cx="973" cy="-222.3503" rx="27" ry="26.7407"/>
<text text-anchor="middle" x="973" y="-226.1503" font-family="Times,serif" font-size="14.00" fill="#000000">6</text>
<text text-anchor="middle" x="973" y="-211.1503" font-family="Times,serif" font-size="14.00" fill="#000000">3</text>
</g>
<!-- m6c7 -->
<g id="node25" class="node">
<title>m6c7</title>
<ellipse fill="none" stroke="#000000" cx="937" cy="-132.6102" rx="27" ry="26.7407"/>
<text text-anchor="middle" x="937" y="-136.4102" font-family="Times,serif" font-size="14.00" fill="#000000">7</text>
<text text-anchor="middle" x="937" y="-121.4102" font-family="Times,serif" font-size="14.00" fill="#000000">6</text>
</g>
<!-- m6c6&#45;&#45;m6c7 -->
<g id="edge19" class="edge">
<title>m6c6&#45;&#45;m6c7</title>
<path fill="none" stroke="#000000" d="M962.972,-197.3527C958.0204,-185.0095 952.0602,-170.1521 947.0991,-157.785"/>
</g>
<!-- m6c6&#45;&#45;m6c8 -->
<g id="edge20" class="edge">
<title>m6c6&#45;&#45;m6c8</title>
<path fill="none" stroke="#000000" d="M983.028,-197.3527C987.9796,-185.0095 993.9398,-170.1521 998.9009,-157.785"/>
</g>
<!-- m6c9 -->
<g id="node27" class="node">
<title>m6c9</title>
<ellipse fill="none" stroke="#000000" cx="1009" cy="-42.8701" rx="27" ry="26.7407"/>
<text text-anchor="middle" x="1009" y="-46.6701" font-family="Times,serif" font-size="14.00" fill="#000000">9</text>
<text text-anchor="middle" x="1009" y="-31.6701" font-family="Times,serif" font-size="14.00" fill="#000000">8</text>
</g>
<!-- m6c8&#45;&#45;m6c9 -->
<g id="edge21" class="edge">
<title>m6c8&#45;&#45;m6c9</title>
<path fill="none" stroke="#000000" d="M1009,-105.6852C1009,-94.327 1009,-81.1321 1009,-69.776"/>
</g>
<!-- m7c1 -->
<g id="node28" class="node">
<title>m7c1</title>
<ellipse fill="none" stroke="#000000" cx="1375" cy="-222.3503" rx="27" ry="26.7407"/>
<text text-anchor="middle" x="1375" y="-226.1503" font-family="Times,serif" font-size="14.00" fill="#000000">1</text>
<text text-anchor="middle" x="1375" y="-211.1503" font-family="Times,serif" font-size="14.00" fill="#000000">9</text>
</g>
<!-- m7c3 -->
<g id="node30" class="node">
<title>m7c3</title>
<ellipse fill="none" stroke="#000000" cx="1375" cy="-132.6102" rx="27" ry="26.7407"/>
<text text-anchor="middle" x="1375" y="-136.4102" font-family="Times,serif" font-size="14.00" fill="#000000">3</text>
<text text-anchor="middle" x="1375" y="-121.4102" font-family="Times,serif" font-size="14.00" fill="#000000">7</text>
</g>
<!-- m7c1&#45;&#45;m7c3 -->
<g id="edge22" class="edge">
<title>m7c1&#45;&#45;m7c3</title>
<path fill="none" stroke="#000000" d="M1375,-195.4253C1375,-184.0671 1375,-170.8723 1375,-159.5162"/>
</g>
<!-- m7c4 -->
<g id="node31" class="node">
<title>m7c4</title>
<ellipse fill="none" stroke="#000000" cx="1447" cy="-132.6102" rx="27" ry="26.7407"/>
<text text-anchor="middle" x="1447" y="-136.4102" font-family="Times,serif" font-size="14.00" fill="#000000">4</text>
<text text-anchor="middle" x="1447" y="-121.4102" font-family="Times,serif" font-size="14.00" fill="#000000">6</text>
</g>
<!-- m7c1&#45;&#45;m7c4 -->
<g id="edge23" class="edge">
<title>m7c1&#45;&#45;m7c4</title>
<path fill="none" stroke="#000000" d="M1392.063,-201.0831C1403.5404,-186.7778 1418.6078,-167.998 1430.0595,-153.7247"/>
</g>
<!-- m7c8 -->
<g id="node35" class="node">
<title>m7c8</title>
<ellipse fill="none" stroke="#000000" cx="1303" cy="-132.6102" rx="27" ry="26.7407"/>
<text text-anchor="middle" x="1303" y="-136.4102" font-family="Times,serif" font-size="14.00" fill="#000000">8</text>
<text text-anchor="middle" x="1303" y="-121.4102" font-family="Times,serif" font-size="14.00" fill="#000000">1</text>
</g>
<!-- m7c1&#45;&#45;m7c8 -->
<g id="edge24" class="edge">
<title>m7c1&#45;&#45;m7c8</title>
<path fill="none" stroke="#000000" d="M1357.937,-201.0831C1346.4596,-186.7778 1331.3922,-167.998 1319.9405,-153.7247"/>
</g>
<!-- m7c2 -->
<g id="node29" class="node">
<title>m7c2</title>
<ellipse fill="none" stroke="#000000" cx="1447" cy="-222.3503" rx="27" ry="26.7407"/>
<text text-anchor="middle" x="1447" y="-226.1503" font-family="Times,serif" font-size="14.00" fill="#000000">2</text>
<text text-anchor="middle" x="1447" y="-211.1503" font-family="Times,serif" font-size="14.00" fill="#000000">14</text>
</g>
<!-- m7c2&#45;&#45;m7c4 -->
<g id="edge25" class="edge">
<title>m7c2&#45;&#45;m7c4</title>
<path fill="none" stroke="#000000" d="M1447,-195.4253C1447,-184.0671 1447,-170.8723 1447,-159.5162"/>
</g>
<!-- m7c5 -->
<g id="node32" class="node">
<title>m7c5</title>
<ellipse fill="none" stroke="#000000" cx="1447" cy="-42.8701" rx="27" ry="26.7407"/>
<text text-anchor="middle" x="1447" y="-46.6701" font-family="Times,serif" font-size="14.00" fill="#000000">5</text>
<text text-anchor="middle" x="1447" y="-31.6701" font-family="Times,serif" font-size="14.00" fill="#000000">11</text>
</g>
<!-- m7c4&#45;&#45;m7c5 -->
<g id="edge26" class="edge">
<title>m7c4&#45;&#45;m7c5</title>
<path fill="none" stroke="#000000" d="M1447,-105.6852C1447,-94.327 1447,-81.1321 1447,-69.776"/>
</g>
<!-- m7c6 -->
<g id="node33" class="node">
<title>m7c6</title>
<ellipse fill="none" stroke="#000000" cx="1267" cy="-222.3503" rx="27" ry="26.7407"/>
<text text-anchor="middle" x="1267" y="-226.1503" font-family="Times,serif" font-size="14.00" fill="#000000">6</text>
<text text-anchor="middle" x="1267" y="-211.1503" font-family="Times,serif" font-size="14.00" fill="#000000">3</text>
</g>
<!-- m7c7 -->
<g id="node34" class="node">
<title>m7c7</title>
<ellipse fill="none" stroke="#000000" cx="1231" cy="-132.6102" rx="27" ry="26.7407"/>
<text text-anchor="middle" x="1231" y="-136.4102" font-family="Times,serif" font-size="14.00" fill="#000000">7</text>
<text text-anchor="middle" x="1231" y="-121.4102" font-family="Times,serif" font-size="14.00" fill="#000000">6</text>
</g>
<!-- m7c6&#45;&#45;m7c7 -->
<g id="edge27" class="edge">
<title>m7c6&#45;&#45;m7c7</title>
<path fill="none" stroke="#000000" d="M1256.972,-197.3527C1252.0204,-185.0095 1246.0602,-170.1521 1241.0991,-157.785"/>
</g>
<!-- m7c6&#45;&#45;m7c8 -->
<g id="edge28" class="edge">
<title>m7c6&#45;&#45;m7c8</title>
<path fill="none" stroke="#000000" d="M1277.028,-197.3527C1281.9796,-185.0095 1287.9398,-170.1521 1292.9009,-157.785"/>
</g>
<!-- m7c9 -->
<g id="node36" class="node">
<title>m7c9</title>
<ellipse fill="none" stroke="#000000" cx="1303" cy="-42.8701" rx="27" ry="26.7407"/>
<text text-anchor="middle" x="1303" y="-46.6701" font-family="Times,serif" font-size="14.00" fill="#000000">9</text>
<text text-anchor="middle" x="1303" y="-31.6701" font-family="Times,serif" font-size="14.00" fill="#000000">8</text>
</g>
<!-- m7c8&#45;&#45;m7c9 -->
<g id="edge29" class="edge">
<title>m7c8&#45;&#45;m7c9</title>
<path fill="none" stroke="#000000" d="M1303,-105.6852C1303,-94.327 1303,-81.1321 1303,-69.776"/>
</g>
</g>
</svg>
